<svg width="33" height="34" viewBox="0 0 33 34" fill="none" xmlns="http://www.w3.org/2000/svg">
<path d="M16.2366 33.0604C25.0336 33.0604 32.1649 25.6596 32.1649 16.5302C32.1649 7.40083 25.0336 0 16.2366 0C7.43969 0 0.30835 7.40083 0.30835 16.5302C0.30835 25.6596 7.43969 33.0604 16.2366 33.0604Z" fill="url(#paint0_linear_169_55)"/>
<path fill-rule="evenodd" clip-rule="evenodd" d="M7.51728 16.3555C12.1607 14.256 15.257 12.8719 16.8063 12.2032C21.2298 10.2938 22.1489 9.96208 22.748 9.95113C22.8798 9.94872 23.1744 9.98261 23.3652 10.1433C23.5264 10.279 23.5707 10.4623 23.5919 10.591C23.6131 10.7196 23.6396 11.0127 23.6186 11.2417C23.3788 13.8555 22.3416 20.1986 21.814 23.1261C21.5907 24.3648 21.151 24.7802 20.7254 24.8208C19.8004 24.9092 19.098 24.1864 18.2021 23.577C16.8002 22.6233 16.0083 22.0296 14.6475 21.099C13.0749 20.0235 14.0943 19.4324 14.9905 18.4663C15.2251 18.2135 19.3006 14.3664 19.3795 14.0175C19.3894 13.9738 19.3985 13.8111 19.3054 13.7252C19.2122 13.6393 19.0748 13.6687 18.9756 13.692C18.835 13.7252 16.5954 15.2613 12.2569 18.3006C11.6213 18.7536 11.0455 18.9743 10.5296 18.9628C9.96086 18.95 8.86686 18.6291 8.05359 18.3547C7.05608 18.0182 6.26328 17.8403 6.33232 17.2688C6.36827 16.9711 6.76326 16.6667 7.51728 16.3555Z" fill="white"/>
<defs>
<linearGradient id="paint0_linear_169_55" x1="16.2366" y1="0" x2="16.2366" y2="32.8152" gradientUnits="userSpaceOnUse">
<stop stop-color="#2AABEE"/>
<stop offset="1" stop-color="#229ED9"/>
</linearGradient>
</defs>
</svg>
