<svg width="33" height="34" viewBox="0 0 33 34" fill="none" xmlns="http://www.w3.org/2000/svg">
<path d="M6.21802 9.55595H5.70789L5.71812 10.066C5.80582 14.4349 6.90278 17.9988 8.96256 20.4794C11.0339 22.974 14.0332 24.3173 17.7925 24.3173H18.2041H18.7041V23.8173V19.483C20.8601 19.9358 22.5155 21.683 23.2215 23.9651L23.3305 24.3173H23.6992H27.469H28.1185L27.9524 23.6894C27.0103 20.1297 24.7303 17.952 22.9697 16.8724C24.6581 15.6076 26.6397 13.2358 27.1654 10.1397L27.2645 9.55595H26.6725H23.2478H22.8658L22.7654 9.92448C22.4152 11.2095 21.7183 12.441 20.8648 13.374C20.1812 14.1212 19.4277 14.6448 18.7041 14.8783V10.056V9.55595H18.2041H14.7794H14.2794V10.056V19.7763C13.5384 19.359 12.7145 18.5212 12.0054 17.2096C11.0982 15.5315 10.4133 13.1338 10.3549 10.0465L10.3456 9.55595H9.85496H6.21802ZM1.34216 15.869C1.34216 12.115 1.34315 9.34801 1.61794 7.22694C1.8911 5.11841 2.42692 3.72388 3.44155 2.6709C4.45368 1.62052 5.79005 1.06797 7.81314 0.785698C9.85257 0.501142 12.5145 0.5 16.1333 0.5H17.4076C21.0264 0.5 23.6883 0.501142 25.7278 0.785698C27.7508 1.06797 29.0872 1.62052 30.0994 2.6709C31.114 3.72387 31.6498 5.11841 31.923 7.22694C32.1977 9.34801 32.1987 12.115 32.1987 15.869V17.1914C32.1987 20.9454 32.1977 23.7124 31.923 25.8335C31.6498 27.942 31.114 29.3365 30.0994 30.3895C29.0872 31.4399 27.7508 31.9924 25.7278 32.2747C23.6883 32.5593 21.0264 32.5604 17.4076 32.5604H16.1333C12.5145 32.5604 9.85257 32.5593 7.81314 32.2747C5.79005 31.9924 4.45368 31.4399 3.44155 30.3895C2.42692 29.3365 1.8911 27.942 1.61794 25.8335C1.34315 23.7124 1.34216 20.9454 1.34216 17.1914V15.869Z" fill="#4169E1" stroke="#898989"/>
</svg>
